<svg xmlns="http://www.w3.org/2000/svg" viewBox="0 0 300 350" width="300" height="350">
  <defs>
    <linearGradient id="goldGrad" x1="0%" y1="0%" x2="0%" y2="100%">
      <stop offset="0%" style="stop-color:#FFE55C;stop-opacity:1" />
      <stop offset="100%" style="stop-color:#DAA520;stop-opacity:1" />
    </linearGradient>
    <linearGradient id="greenGrad" x1="0%" y1="0%" x2="0%" y2="100%">
      <stop offset="0%" style="stop-color:#009B6E;stop-opacity:1" />
      <stop offset="100%" style="stop-color:#005A3A;stop-opacity:1" />
    </linearGradient>
  </defs>

  <!-- SHIELD SHAPE -->
  <path d="M 150 20 L 250 80 L 250 180 Q 150 280 150 320 Q 150 280 50 180 L 50 80 Z" fill="url(#goldGrad)" stroke="#333" stroke-width="2"/>
  
  <!-- INNER SHIELD -->
  <path d="M 150 40 L 235 85 L 235 170 Q 150 255 150 295 Q 150 255 65 170 L 65 85 Z" fill="url(#greenGrad)" stroke="#333" stroke-width="1"/>

  <!-- CENTER CIRCLE - SOUTH AFRICA EMBLEM -->
  <circle cx="150" cy="120" r="45" fill="#FFD700" stroke="#333" stroke-width="2"/>
  
  <!-- PROTEA FLOWER (SA NATIONAL FLOWER) -->
  <g transform="translate(150, 120)">
    <!-- Petals -->
    <ellipse cx="0" cy="-25" rx="12" ry="20" fill="#FF6B6B" transform="rotate(0)"/>
    <ellipse cx="0" cy="-25" rx="12" ry="20" fill="#FF5252" transform="rotate(45)"/>
    <ellipse cx="0" cy="-25" rx="12" ry="20" fill="#FF6B6B" transform="rotate(90)"/>
    <ellipse cx="0" cy="-25" rx="12" ry="20" fill="#FF5252" transform="rotate(135)"/>
    <ellipse cx="0" cy="-25" rx="12" ry="20" fill="#FF6B6B" transform="rotate(180)"/>
    <ellipse cx="0" cy="-25" rx="12" ry="20" fill="#FF5252" transform="rotate(225)"/>
    <ellipse cx="0" cy="-25" rx="12" ry="20" fill="#FF6B6B" transform="rotate(270)"/>
    <ellipse cx="0" cy="-25" rx="12" ry="20" fill="#FF5252" transform="rotate(315)"/>
    
    <!-- Center -->
    <circle cx="0" cy="0" r="10" fill="#8B4513"/>
  </g>

  <!-- UPPER TEXT -->
  <text x="150" y="280" font-size="24" font-weight="bold" fill="#333" text-anchor="middle" font-family="Arial, sans-serif">REPUBLIC OF</text>
  <text x="150" y="310" font-size="28" font-weight="900" fill="#007a3d" text-anchor="middle" font-family="Arial, sans-serif">SOUTH AFRICA</text>

  <!-- DECORATIVE STARS -->
  <g fill="#FFD700" opacity="0.8">
    <polygon points="70,100 75,112 88,115 78,123 81,136 70,130 59,136 62,123 52,115 65,112" />
    <polygon points="230,100 235,112 248,115 238,123 241,136 230,130 219,136 222,123 212,115 225,112" />
  </g>

  <!-- BOTTOM BANNER SCROLL -->
  <path d="M 80 240 Q 80 250 90 250 L 210 250 Q 220 250 220 240" fill="none" stroke="#333" stroke-width="2"/>
</svg>